<?xml version="1.0" encoding="UTF-8" standalone="no"?>
<!-- Created with Inkscape (http://www.inkscape.org/) -->

<svg
   xmlns:dc="http://purl.org/dc/elements/1.1/"
   xmlns:cc="http://creativecommons.org/ns#"
   xmlns:rdf="http://www.w3.org/1999/02/22-rdf-syntax-ns#"
   xmlns:svg="http://www.w3.org/2000/svg"
   xmlns="http://www.w3.org/2000/svg"
   version="1.1"
   width="110"
   height="110"
   id="svg3034">
  <defs
     id="defs3036" />
  <metadata
     id="metadata3039">
    <rdf:RDF>
      <cc:Work
         rdf:about="">
        <dc:format>image/svg+xml</dc:format>
        <dc:type
           rdf:resource="http://purl.org/dc/dcmitype/StillImage" />
        <dc:title></dc:title>
      </cc:Work>
    </rdf:RDF>
  </metadata>
  <g
     transform="translate(0,-942.36218)"
     id="layer1">
    <g
       transform="matrix(0.58881981,0,0,0.61394787,-135.10468,773.13655)"
       id="g3792">
      <path
         d="m 268.61355,354.62999 c -3.73655,6.57992 -57.82062,38.77698 -65.34797,38.95013 -7.52736,0.17316 -61.68116,-31.6391 -65.52419,-38.12569 -3.84303,-6.4866 -3.60231,-68.70828 0.0118,-75.32195 3.61413,-6.61366 58.00059,-37.96277 65.49414,-37.99858 7.49355,-0.0358 61.46991,30.69793 65.37802,37.17415 3.9081,6.47621 3.72472,68.74202 -0.0118,75.32194 z"
         transform="matrix(1.2189051,0,0,1.1649304,75.15324,-5.0623626)"
         id="path2985-1"
         style="fill:#93c47d;fill-opacity:1;stroke:#6aa84f;stroke-width:3;stroke-linecap:round;stroke-linejoin:round;stroke-miterlimit:4;stroke-opacity:1;stroke-dasharray:none" />
      <path
         d="m 401.1391,408.05689 c -4.5545,7.66515 -70.47785,45.17249 -79.65298,45.37419 0,-58.14565 -0.0222,-120.76756 -0.0222,-176.4243 9.13392,-0.0417 74.92598,35.76095 79.6896,43.3053 4.7636,7.54433 4.54008,80.07966 -0.0144,87.74481 z"
         id="path2985-1-7"
         style="fill:#6aa84f;fill-opacity:1;stroke:none" />
    </g>
    <text
       x="55.071991"
       y="976.49506"
       id="text2993"
       xml:space="preserve"
       style="font-size:14px;font-style:normal;font-variant:normal;font-weight:bold;font-stretch:normal;text-align:center;line-height:125%;letter-spacing:0px;word-spacing:0px;text-anchor:middle;fill:#f9f9f9;fill-opacity:1;stroke:none;font-family:Ubuntu;-inkscape-font-specification:Ubuntu Bold"><tspan
         x="55.071991"
         y="976.49506"
         id="tspan2995">HTML5| JS |</tspan><tspan
         x="55.071991"
         y="993.99506"
         id="tspan2997">CSS | PHP</tspan><tspan
         x="56.753632"
         y="1011.4951"
         id="tspan2999">3 years of </tspan><tspan
         x="55.071991"
         y="1028.9951"
         id="tspan3001">experience</tspan></text>
  </g>
</svg>
