<?xml version="1.0" encoding="UTF-8" standalone="no"?>
<!-- Created with Inkscape (http://www.inkscape.org/) -->

<svg
   xmlns:dc="http://purl.org/dc/elements/1.1/"
   xmlns:cc="http://creativecommons.org/ns#"
   xmlns:rdf="http://www.w3.org/1999/02/22-rdf-syntax-ns#"
   xmlns:svg="http://www.w3.org/2000/svg"
   xmlns="http://www.w3.org/2000/svg"
   version="1.1"
   width="110"
   height="110"
   id="svg3034">
  <defs
     id="defs3" />
  <metadata
     id="metadata4">
    <rdf:RDF>
      <cc:Work
         rdf:about="">
        <dc:format>image/svg+xml</dc:format>
        <dc:type
           rdf:resource="http://purl.org/dc/dcmitype/StillImage" />
        <dc:title></dc:title>
      </cc:Work>
    </rdf:RDF>
  </metadata>
  <g
     transform="translate(0,-942.36218)"
     id="layer1">
    <g
       transform="matrix(1.2442313,0,0,1.2442313,-293.38476,-237.86353)"
       id="g4116">
      <g
         transform="matrix(0.37444147,0.37444147,-0.37444147,0.37444147,553.05645,509.47524)"
         id="g4000">
        <path
           d="m 328.8433,1039.1941 c -4.83829,3.4976 -91.64261,3.9241 -96.2699,0.1052 0,-15.7405 -1.79201,-53.02677 0,-58.85715 1.79201,-5.83035 43.16268,-36.46138 49.07712,-36.31054 5.91443,0.15086 45.40042,31.69491 47.19278,37.59181 1.79235,5.89688 0,44.32918 0,57.47098 z"
           id="path3919"
           style="fill:#ffffff;fill-opacity:1;stroke:#b55252;stroke-width:3.71954346;stroke-linecap:round;stroke-linejoin:round;stroke-miterlimit:4;stroke-opacity:1;stroke-dasharray:none" />
        <path
           d="m 232.86758,1038.7075 c 1.78643,-7.7341 43.02821,-48.36741 48.92422,-48.16737 5.89601,0.20018 45.25898,42.04457 47.04576,49.86707 -5.20457,0.4658 -91.6572,2.9579 -95.96998,-1.6997 z"
           id="path3919-8"
           style="fill:none;stroke:#b55252;stroke-width:3.71954346;stroke-linecap:round;stroke-linejoin:round;stroke-miterlimit:4;stroke-opacity:1;stroke-dasharray:none" />
        <path
           d="m 232.41372,168.27312 42.38406,13.97277"
           transform="translate(0,812.36217)"
           id="path3974"
           style="fill:none;stroke:#b55252;stroke-width:3.71954346;stroke-linecap:butt;stroke-linejoin:miter;stroke-miterlimit:4;stroke-opacity:1;stroke-dasharray:none" />
        <path
           d="m 328.50844,981.51434 -40.1602,13.23963"
           id="path3974-5"
           style="fill:none;stroke:#b55252;stroke-width:3.71954346;stroke-linecap:butt;stroke-linejoin:miter;stroke-miterlimit:4;stroke-opacity:1;stroke-dasharray:none" />
      </g>
    </g>
  </g>
</svg>
